<svg width="42" height="19" viewBox="0 0 42 19" fill="none" xmlns="http://www.w3.org/2000/svg">
<path d="M40.4372 6.06968C39.4918 5.98348 38.6557 6.68001 38.5695 7.62532L38.3418 10.1234C34.4781 4.05573 27.7712 0 20 0C11.6399 0 4.2724 4.77142 0.615071 11.9328C0.183321 12.7781 0.518649 13.8134 1.36402 14.2452C2.20956 14.6769 3.24467 14.3417 3.67642 13.4962C6.77163 7.43557 12.9872 3.4375 20 3.4375C26.3918 3.4375 32.1601 6.76595 35.4647 11.9804L33.014 10.2301C32.2415 9.67845 31.1681 9.85738 30.6165 10.6298C30.0648 11.4023 30.2437 12.4756 31.0161 13.0274L38.4476 18.3349C39.5368 19.1114 41.039 18.4006 41.1582 17.0924L41.9927 7.93745C42.079 6.99205 41.3825 6.15587 40.4372 6.06968Z" fill="black"/>
</svg>
