<svg width="44" height="44" viewBox="0 0 44 44" fill="none" xmlns="http://www.w3.org/2000/svg">
<g clip-path="url(#clip0_2_29)">
<path d="M42.4372 6.06968C41.4918 5.98348 40.6557 6.68001 40.5695 7.62532L40.3418 10.1234C36.4781 4.05573 29.7712 0 22 0C13.6399 0 6.2724 4.77142 2.61507 11.9328C2.18332 12.7781 2.51865 13.8134 3.36402 14.2452C4.20956 14.6769 5.24467 14.3417 5.67642 13.4962C8.77163 7.43557 14.9872 3.4375 22 3.4375C28.3918 3.4375 34.1601 6.76595 37.4647 11.9804L35.014 10.2301C34.2415 9.67845 33.1681 9.85738 32.6165 10.6298C32.0648 11.4023 32.2437 12.4756 33.0161 13.0274L40.4476 18.3349C41.5368 19.1114 43.039 18.4006 43.1582 17.0924L43.9927 7.93745C44.079 6.99205 43.3825 6.15587 42.4372 6.06968Z" fill="black"/>
<path d="M40.636 29.7548C39.7905 29.3232 38.7553 29.6584 38.3236 30.5038C35.2284 36.5644 29.0128 40.5625 22 40.5625C15.6082 40.5625 9.83993 37.234 6.53529 32.0196L8.98597 33.7699C9.75846 34.3215 10.8318 34.1426 11.3835 33.3702C11.9352 32.5977 11.7562 31.5244 10.9838 30.9726L3.5524 25.6651C2.47654 24.8964 0.962154 25.5859 0.841841 26.9076L0.00730237 36.0625C-0.0788929 37.0079 0.617631 37.844 1.56286 37.9302C2.50937 38.0162 3.34443 37.319 3.43054 36.3746L3.65827 33.8765C7.52185 39.9443 14.2288 44 22 44C30.3601 44 37.7276 39.2286 41.3849 32.0672C41.8167 31.2219 41.4813 30.1866 40.636 29.7548Z" fill="black"/>
</g>
<defs>
<clipPath id="clip0_2_29">
<rect width="44" height="44" fill="white"/>
</clipPath>
</defs>
</svg>
